<?xml version="1.0" encoding="UTF-8" standalone="no"?><!DOCTYPE svg PUBLIC "-//W3C//DTD SVG 1.1//EN" "http://www.w3.org/Graphics/SVG/1.1/DTD/svg11.dtd"><svg width="100%" height="100%" viewBox="0 0 485 210" version="1.1" xmlns="http://www.w3.org/2000/svg" xmlns:xlink="http://www.w3.org/1999/xlink" xml:space="preserve" xmlns:serif="http://www.serif.com/" style="fill-rule:evenodd;clip-rule:evenodd;stroke-linejoin:round;stroke-miterlimit:1.41421;"><g id="Layer-1" serif:id="Layer 1"><path d="M187.475,128.002l-0.928,-2.075l-18.84,-41.938l9.311,0l10.43,23.181l10.43,-23.181l9.419,0l-19.822,44.013Z" style="fill:#75112e;fill-rule:nonzero;"/><path d="M220.941,112.603l-3.44,-7.7l-3.468,7.7l6.908,0Zm-11.003,9.119l-2.84,6.28l-1.501,0l-0.355,0l-5.679,0l-1.857,0l18.839,-41.965l0.929,-2.048l0.955,2.075l18.867,41.938l-1.857,0l-5.679,0l-0.382,0l-1.502,0l-2.812,-6.307l-0.136,-0.3l-14.853,0l-0.137,0.327Z" style="fill:#75112e;fill-rule:nonzero;"/><path d="M265.439,108.043l0,-24.054l8.819,0l0,44.012l-26.402,-24.081l0,24.081l-8.819,0l0,-44.012l26.402,24.054Z" style="fill:#75112e;fill-rule:nonzero;"/><path d="M309.596,85.723c2.666,1.156 5.01,2.726 7.031,4.71l-6.226,6.225c-2.621,-2.585 -5.733,-3.877 -9.337,-3.877c-3.641,0 -6.749,1.297 -9.325,3.891c-2.575,2.594 -3.863,5.702 -3.863,9.324c0,3.64 1.288,6.748 3.863,9.324c2.576,2.576 5.684,3.863 9.325,3.863c2.857,0 5.415,-0.824 7.672,-2.471c2.257,-1.647 3.85,-3.753 4.778,-6.32l-12.45,0l0,-8.792l21.569,0c0.292,1.384 0.437,2.849 0.437,4.396c0,6.061 -2.157,11.244 -6.471,15.549c-4.313,4.305 -9.492,6.457 -15.535,6.457c-6.062,0 -11.245,-2.152 -15.549,-6.457c-4.305,-4.305 -6.458,-9.488 -6.458,-15.549c0,-6.043 2.153,-11.221 6.458,-15.536c4.304,-4.314 9.487,-6.47 15.549,-6.47c3.021,0 5.865,0.577 8.532,1.733" style="fill:#75112e;fill-rule:nonzero;"/><path d="M363.527,83.989l0,26.402c0,4.86 -1.725,9.011 -5.174,12.451c-3.449,3.439 -7.594,5.16 -12.437,5.16c-4.86,0 -9.01,-1.721 -12.45,-5.16c-3.44,-3.44 -5.16,-7.591 -5.16,-12.451l0,-8.791l0,-17.611l8.819,0l0,26.402c0,2.421 0.86,4.491 2.58,6.212c1.72,1.72 3.79,2.58 6.211,2.58c2.403,0 4.469,-0.86 6.198,-2.58c1.729,-1.721 2.594,-3.791 2.594,-6.212l0,-0.901l0,-7.89l0,-17.611l8.819,0Z" style="fill:#75112e;fill-rule:nonzero;"/><path d="M387.575,112.603l-3.441,-7.7l-3.467,7.7l6.908,0Zm-11.004,9.119l-2.839,6.28l-1.502,0l-0.355,0l-5.679,0l-1.857,0l18.84,-41.965l0.928,-2.048l0.956,2.075l18.867,41.938l-1.857,0l-5.679,0l-0.382,0l-1.502,0l-2.812,-6.307l-0.137,-0.3l-14.853,0l-0.137,0.327Z" style="fill:#75112e;fill-rule:nonzero;"/><path d="M421.07,105.995c1.82,0 3.376,-0.646 4.669,-1.938c1.292,-1.293 1.938,-2.85 1.938,-4.669c0,-1.803 -0.646,-3.354 -1.938,-4.655c-1.293,-1.302 -2.849,-1.952 -4.669,-1.952l-6.58,0l0,13.214l6.58,0Zm-15.399,8.792l0,-15.399l0,-15.399l15.399,0c4.241,0 7.872,1.51 10.894,4.532c3.022,3.022 4.532,6.644 4.532,10.867c0,3.276 -0.933,6.22 -2.799,8.832c-1.865,2.612 -4.245,4.464 -7.139,5.556l9.938,14.225l-10.757,0l-11.249,-16.109l0,16.109l-8.819,0l0,-13.214Z" style="fill:#75112e;fill-rule:nonzero;"/><path d="M458.634,115.32c2.585,-2.576 3.877,-5.684 3.877,-9.324c0,-3.622 -1.292,-6.73 -3.877,-9.324c-2.585,-2.594 -5.688,-3.891 -9.31,-3.891l0,26.402c3.622,0 6.725,-1.287 9.31,-3.863m6.226,-24.86c4.313,4.314 6.47,9.493 6.47,15.536c0,6.061 -2.157,11.244 -6.47,15.549c-4.315,4.305 -9.494,6.457 -15.536,6.457l-8.819,0l0,-44.013l8.819,0c6.042,0 11.221,2.157 15.536,6.471" style="fill:#75112e;fill-rule:nonzero;"/><path d="M192.62,155.484l-2.947,0l0,-5.311l-5.401,0l0,5.311l-2.938,0l0,-13.04l2.938,0l0,5.201l5.401,0l0,-5.201l2.947,0l0,13.04Z" style="fill:#1a1a1a;fill-rule:nonzero;"/><path d="M210.314,155.484l-7.821,0l0,-13.04l7.521,0l0,2.392l-4.583,0l0,2.9l4.264,0l0,2.383l-4.264,0l0,2.982l4.883,0l0,2.383Z" style="fill:#1a1a1a;fill-rule:nonzero;"/><path d="M226.053,150.327l-1.4,-4.383c-0.104,-0.327 -0.177,-0.719 -0.219,-1.173l-0.072,0c-0.031,0.382 -0.107,0.761 -0.228,1.137l-1.418,4.419l3.337,0Zm4.801,5.156l-3.201,0l-0.927,-2.901l-4.638,0l-0.918,2.901l-3.183,0l4.747,-13.04l3.483,0l4.637,13.04Z" style="fill:#1a1a1a;fill-rule:nonzero;"/><path d="M247.139,155.484l-7.766,0l0,-13.04l2.937,0l0,10.657l4.829,0l0,2.383Z" style="fill:#1a1a1a;fill-rule:nonzero;"/><path d="M263.915,144.835l-3.72,0l0,10.648l-2.946,0l0,-10.648l-3.701,0l0,-2.392l10.367,0l0,2.392Z" style="fill:#1a1a1a;fill-rule:nonzero;"/><path d="M283.846,155.484l-2.947,0l0,-5.311l-5.401,0l0,5.311l-2.938,0l0,-13.04l2.938,0l0,5.201l5.401,0l0,-5.201l2.947,0l0,13.04Z" style="fill:#1a1a1a;fill-rule:nonzero;"/><rect x="305.748" y="142.444" width="2.938" height="13.04" style="fill:#1a1a1a;"/><path d="M330.273,155.484l-2.965,0l-5.375,-8.193c-0.315,-0.479 -0.534,-0.84 -0.655,-1.082l-0.036,0c0.049,0.461 0.073,1.164 0.073,2.109l0,7.166l-2.774,0l0,-13.04l3.165,0l5.174,7.938c0.237,0.358 0.455,0.713 0.655,1.064l0.036,0c-0.048,-0.303 -0.072,-0.899 -0.072,-1.791l0,-7.211l2.774,0l0,13.04Z" style="fill:#1a1a1a;fill-rule:nonzero;"/><path d="M339.545,154.984l0,-2.91c0.527,0.442 1.1,0.774 1.719,0.996c0.618,0.221 1.242,0.332 1.873,0.332c0.369,0 0.692,-0.033 0.969,-0.101c0.275,-0.066 0.505,-0.159 0.69,-0.277c0.186,-0.118 0.323,-0.258 0.414,-0.418c0.091,-0.161 0.137,-0.335 0.137,-0.523c0,-0.254 -0.073,-0.482 -0.219,-0.682c-0.146,-0.2 -0.344,-0.385 -0.596,-0.555c-0.252,-0.17 -0.55,-0.333 -0.895,-0.491c-0.346,-0.157 -0.719,-0.318 -1.118,-0.481c-1.019,-0.425 -1.779,-0.944 -2.279,-1.556c-0.5,-0.612 -0.75,-1.352 -0.75,-2.219c0,-0.678 0.136,-1.262 0.409,-1.75c0.273,-0.488 0.644,-0.889 1.114,-1.205c0.469,-0.315 1.014,-0.547 1.633,-0.696c0.618,-0.149 1.273,-0.223 1.963,-0.223c0.68,0 1.282,0.041 1.806,0.123c0.525,0.082 1.008,0.208 1.45,0.377l0,2.72c-0.217,-0.152 -0.456,-0.285 -0.714,-0.4c-0.257,-0.116 -0.522,-0.211 -0.795,-0.287c-0.273,-0.076 -0.544,-0.131 -0.814,-0.169c-0.269,-0.036 -0.526,-0.054 -0.768,-0.054c-0.334,0 -0.637,0.032 -0.91,0.095c-0.273,0.064 -0.504,0.154 -0.691,0.269c-0.188,0.115 -0.333,0.253 -0.437,0.414c-0.103,0.16 -0.154,0.341 -0.154,0.541c0,0.218 0.058,0.413 0.173,0.586c0.115,0.173 0.278,0.337 0.491,0.491c0.212,0.155 0.47,0.307 0.773,0.455c0.302,0.149 0.645,0.302 1.027,0.459c0.521,0.218 0.99,0.451 1.405,0.696c0.415,0.246 0.772,0.523 1.069,0.832c0.296,0.309 0.524,0.663 0.682,1.059c0.157,0.398 0.237,0.86 0.237,1.387c0,0.727 -0.139,1.339 -0.415,1.833c-0.276,0.494 -0.65,0.894 -1.123,1.2c-0.472,0.306 -1.023,0.526 -1.65,0.659c-0.628,0.133 -1.29,0.201 -1.987,0.201c-0.715,0 -1.396,-0.061 -2.041,-0.182c-0.647,-0.122 -1.205,-0.304 -1.678,-0.546" style="fill:#1a1a1a;fill-rule:nonzero;"/><path d="M368.106,149.836c0,3.917 -1.825,5.875 -5.475,5.875c-3.541,0 -5.31,-1.913 -5.31,-5.738l0,-7.53l2.946,0l0,7.566c0,2.11 0.824,3.165 2.474,3.165c1.618,0 2.427,-1.019 2.427,-3.056l0,-7.675l2.938,0l0,7.393Z" style="fill:#1a1a1a;fill-rule:nonzero;"/><path d="M380.771,144.644l0,3.629l1.273,0c0.63,0 1.137,-0.183 1.519,-0.546c0.388,-0.37 0.582,-0.827 0.582,-1.373c0,-1.14 -0.683,-1.71 -2.047,-1.71l-1.327,0Zm8.002,10.84l-3.373,0l-2.028,-3.356c-0.152,-0.255 -0.297,-0.482 -0.437,-0.682c-0.14,-0.199 -0.28,-0.371 -0.423,-0.514c-0.142,-0.142 -0.291,-0.251 -0.445,-0.327c-0.154,-0.075 -0.323,-0.113 -0.505,-0.113l-0.791,0l0,4.992l-2.938,0l0,-13.04l4.657,0c3.164,0 4.747,1.181 4.747,3.546c0,0.455 -0.07,0.875 -0.209,1.259c-0.14,0.385 -0.337,0.733 -0.592,1.041c-0.254,0.31 -0.562,0.577 -0.923,0.801c-0.36,0.224 -0.763,0.4 -1.205,0.528l0,0.036c0.194,0.06 0.382,0.159 0.565,0.296c0.181,0.135 0.357,0.295 0.527,0.477c0.169,0.182 0.332,0.377 0.486,0.586c0.155,0.209 0.296,0.414 0.423,0.614l2.464,3.856Z" style="fill:#1a1a1a;fill-rule:nonzero;"/><path d="M403.549,150.327l-1.4,-4.383c-0.104,-0.327 -0.176,-0.719 -0.219,-1.173l-0.072,0c-0.031,0.382 -0.107,0.761 -0.228,1.137l-1.419,4.419l3.338,0Zm4.802,5.156l-3.201,0l-0.928,-2.901l-4.638,0l-0.919,2.901l-3.182,0l4.747,-13.04l3.482,0l4.639,13.04Z" style="fill:#1a1a1a;fill-rule:nonzero;"/><path d="M428.6,155.484l-2.965,0l-5.374,-8.193c-0.315,-0.479 -0.534,-0.84 -0.655,-1.082l-0.036,0c0.048,0.461 0.072,1.164 0.072,2.109l0,7.166l-2.773,0l0,-13.04l3.165,0l5.173,7.938c0.237,0.358 0.455,0.713 0.656,1.064l0.036,0c-0.049,-0.303 -0.073,-0.899 -0.073,-1.791l0,-7.211l2.774,0l0,13.04Z" style="fill:#1a1a1a;fill-rule:nonzero;"/><path d="M447.822,155.02c-0.952,0.461 -2.195,0.691 -3.729,0.691c-2,0 -3.574,-0.587 -4.719,-1.764c-1.146,-1.176 -1.719,-2.743 -1.719,-4.701c0,-2.085 0.645,-3.778 1.933,-5.075c1.288,-1.297 2.96,-1.946 5.014,-1.946c1.274,0 2.347,0.161 3.22,0.482l0,2.829c-0.873,-0.522 -1.867,-0.783 -2.982,-0.783c-1.226,0 -2.213,0.385 -2.965,1.156c-0.752,0.769 -1.128,1.812 -1.128,3.128c0,1.26 0.354,2.265 1.064,3.014c0.709,0.749 1.664,1.123 2.865,1.123c1.145,0 2.194,-0.279 3.146,-0.837l0,2.683Z" style="fill:#1a1a1a;fill-rule:nonzero;"/><path d="M464.806,155.484l-7.82,0l0,-13.04l7.52,0l0,2.392l-4.583,0l0,2.9l4.265,0l0,2.383l-4.265,0l0,2.982l4.883,0l0,2.383Z" style="fill:#1a1a1a;fill-rule:nonzero;"/><path d="M144.112,131.758c-15.184,25.515 -34.542,46.923 -60.51,61.88c-0.644,0.37 -1.317,0.688 -2.023,1.053c-12.624,-6.978 -23.981,-15.578 -34.081,-25.792c-10.729,-10.85 -19.9,-22.923 -27.685,-36.052c-1.334,-2.25 -2.125,-4.512 -2.117,-7.206c0.069,-25.731 0.037,-51.462 0.051,-77.193c0.001,-1.175 0.151,-2.352 0.256,-3.882c23.57,-4.08 45.279,-12.215 63.622,-28.507c18.158,16.129 39.557,24.417 63.937,28.479l0,4.915c0,25.129 -0.001,50.258 0.012,75.387c0.001,2.421 -0.134,4.689 -1.462,6.918m4.83,-86.473c-0.001,-1.163 -0.185,-2.326 -0.293,-3.605c-25.137,-4.005 -48.132,-12.332 -66.934,-30.394c-18.862,17.895 -41.759,26.465 -67.206,30.368c-0.064,1.255 -0.148,2.134 -0.148,3.014c-0.008,27.517 0.017,55.035 -0.052,82.553c-0.005,2.395 0.76,4.338 1.926,6.319c8.975,15.247 19.705,29.095 32.526,41.317c9.847,9.386 20.822,17.177 32.834,23.857c2.902,-1.701 5.789,-3.291 8.573,-5.042c24.468,-15.387 43.066,-36.313 57.414,-61.182c0.98,-1.7 1.31,-3.988 1.316,-6.005c0.084,-27.066 0.061,-54.133 0.044,-81.2" style="fill:#1a1a1a;fill-rule:nonzero;"/><path d="M111.434,51.551c-9.734,21.563 -19.224,42.611 -29.148,64.625c-4.199,-7.494 -6.944,-14.691 -10.185,-21.626c-3.314,-7.088 -6.538,-14.212 -9.77,-21.328c-3.215,-7.088 -6.393,-14.185 -9.77,-21.671l58.873,0Z" style="fill:#ceb887;fill-rule:nonzero;"/><path d="M33.406,73.224c0,16.67 -0.031,33.34 0.057,50.008c0.008,1.41 0.55,2.976 1.29,4.199c10.047,16.604 22.367,31.231 37.896,43.007c2.169,1.646 8.195,5.656 8.544,5.892c0,0 -31.86,-69.697 -47.04,-103.256c-0.248,0.051 -0.497,0.101 -0.747,0.15" style="fill:#ceb887;fill-rule:nonzero;"/><path d="M90.468,170.012c15.173,-11.513 27.083,-25.924 36.892,-42.128c1.025,-1.692 1.546,-3.95 1.563,-5.952c0.126,-15.183 0.076,-30.368 0.047,-45.553c-0.001,-0.894 -0.301,-1.786 -0.462,-2.679c-0.279,-0.03 -0.557,-0.059 -0.836,-0.088c-14.546,32.004 -43.701,96.566 -46.291,102.304l0,0.291c2.525,-1.656 6.765,-4.433 9.087,-6.195" style="fill:#ceb887;fill-rule:nonzero;"/><path d="M110.527,51.55l-29.147,0l0,64.629c9.929,-22.013 19.421,-43.062 29.147,-64.629" style="fill:#ceb887;fill-rule:nonzero;"/><path d="M61.431,73.221c3.232,7.119 6.451,14.244 9.763,21.326c3.247,6.941 5.993,14.137 10.187,21.633l0,-64.63l-29.726,0c3.376,7.487 6.558,14.587 9.776,21.671" style="fill:#ceb887;fill-rule:nonzero;"/><path d="M136.888,56.5c0,-1.495 0,-2.991 0,-5.069c-18.589,-7.99 -37.067,-11.616 -55.508,-11.485l0,11.604l29.147,0c-9.726,21.566 -19.219,42.615 -29.147,64.629l0,59.736c2.591,-5.736 31.747,-70.299 46.293,-102.303c0.278,0.029 0.557,0.059 0.835,0.088c0.161,0.893 0.46,1.786 0.462,2.679c0.029,15.184 0.079,30.369 -0.048,45.553c-0.016,2.002 -0.537,4.26 -1.562,5.953c-9.81,16.203 -21.719,30.614 -36.892,42.128c-2.322,1.76 -6.561,4.539 -9.088,6.195l0,9.359c0.362,-0.183 0.646,-0.325 0.912,-0.485c22.051,-13.22 38.708,-31.694 52.127,-53.359c1.725,-2.786 2.544,-5.567 2.528,-8.881c-0.113,-22.114 -0.059,-44.228 -0.059,-66.342" style="fill:#935967;fill-rule:nonzero;"/><path d="M81.193,176.33c-0.35,-0.237 -6.374,-4.246 -8.544,-5.892c-15.529,-11.776 -27.849,-26.403 -37.896,-43.008c-0.74,-1.222 -1.282,-2.788 -1.29,-4.198c-0.088,-16.665 -0.056,-33.331 -0.056,-49.996c0.411,-0.09 0.335,-0.073 0.746,-0.162c15.179,33.557 47.04,103.256 47.04,103.256c0,0 0.065,-0.144 0.187,-0.414l0,-59.737c-4.192,-7.494 -6.939,-14.691 -10.185,-21.632c-3.313,-7.082 -6.532,-14.207 -9.765,-21.326c-3.216,-7.084 -6.399,-14.184 -9.774,-21.67l29.724,0l0,-11.604c-18.659,0.132 -37.281,4.113 -55.94,11.331l0,70.487c0,4.239 1.151,8.413 3.4,12.006c13.286,21.225 29.978,39.238 52.038,52.054c0.187,-0.098 0.35,-0.181 0.502,-0.258l0,-9.36c-0.058,0.039 -0.129,0.085 -0.187,0.123" style="fill:#75112e;fill-rule:nonzero;"/><rect x="67.966" y="67.705" width="27.337" height="4.982" style="fill:#935967;"/><rect x="79.144" y="56.528" width="4.982" height="27.337" style="fill:#935967;"/></g></svg>