<?xml version="1.0" encoding="UTF-8" standalone="no"?><!DOCTYPE svg PUBLIC "-//W3C//DTD SVG 1.1//EN" "http://www.w3.org/Graphics/SVG/1.1/DTD/svg11.dtd"><svg width="100%" height="100%" viewBox="0 0 400 234" version="1.1" xmlns="http://www.w3.org/2000/svg" xmlns:xlink="http://www.w3.org/1999/xlink" xml:space="preserve" xmlns:serif="http://www.serif.com/" style="fill-rule:evenodd;clip-rule:evenodd;stroke-linejoin:round;stroke-miterlimit:1.41421;"><g id="Layer-1" serif:id="Layer 1"><path d="M153.768,127.25l-0.789,-1.823l-16.011,-36.846l7.913,0l8.864,20.366l8.864,-20.366l8.004,0l-16.845,38.669Z" style="fill:#75112e;fill-rule:nonzero;"/><path d="M182.209,113.72l-2.924,-6.765l-2.947,6.765l5.871,0Zm-9.351,8.012l-2.414,5.517l-1.275,0l-0.302,0l-4.826,0l-1.578,0l16.01,-36.869l0.789,-1.799l0.812,1.823l16.034,36.845l-1.578,0l-4.826,0l-0.325,0l-1.276,0l-2.39,-5.541l-0.116,-0.263l-12.623,0l-0.116,0.287Z" style="fill:#75112e;fill-rule:nonzero;"/><path d="M220.025,109.715l0,-21.133l7.495,0l0,38.667l-22.438,-21.157l0,21.157l-7.494,0l0,-38.667l22.437,21.133Z" style="fill:#75112e;fill-rule:nonzero;"/><path d="M257.552,90.104c2.266,1.016 4.258,2.395 5.975,4.138l-5.291,5.469c-2.227,-2.271 -4.872,-3.406 -7.935,-3.406c-3.094,0 -5.736,1.14 -7.925,3.419c-2.188,2.279 -3.283,5.009 -3.283,8.191c0,3.198 1.095,5.929 3.283,8.192c2.189,2.263 4.831,3.394 7.925,3.394c2.428,0 4.602,-0.724 6.52,-2.171c1.918,-1.447 3.272,-3.297 4.061,-5.552l-10.581,0l0,-7.725l18.33,0c0.248,1.216 0.372,2.503 0.372,3.862c0,5.325 -1.833,9.879 -5.5,13.661c-3.665,3.783 -8.066,5.673 -13.202,5.673c-5.152,0 -9.557,-1.89 -13.214,-5.673c-3.659,-3.782 -5.489,-8.336 -5.489,-13.661c0,-5.309 1.83,-9.858 5.489,-13.649c3.657,-3.79 8.062,-5.684 13.214,-5.684c2.567,0 4.984,0.507 7.251,1.522" style="fill:#75112e;fill-rule:nonzero;"/><path d="M303.384,88.581l0,23.196c0,4.27 -1.465,7.917 -4.397,10.939c-2.931,3.022 -6.453,4.534 -10.569,4.534c-4.13,0 -7.657,-1.512 -10.581,-4.534c-2.923,-3.022 -4.385,-6.669 -4.385,-10.939l0,-7.723l0,-15.473l7.495,0l0,23.196c0,2.127 0.731,3.946 2.193,5.458c1.461,1.511 3.22,2.267 5.278,2.267c2.042,0 3.798,-0.756 5.267,-2.267c1.47,-1.512 2.205,-3.331 2.205,-5.458l0,-0.791l0,-6.932l0,-15.473l7.494,0Z" style="fill:#75112e;fill-rule:nonzero;"/><path d="M323.822,113.72l-2.925,-6.765l-2.946,6.765l5.871,0Zm-9.352,8.012l-2.413,5.517l-1.276,0l-0.302,0l-4.826,0l-1.578,0l16.011,-36.869l0.789,-1.799l0.812,1.823l16.034,36.845l-1.578,0l-4.826,0l-0.325,0l-1.277,0l-2.389,-5.541l-0.117,-0.263l-12.622,0l-0.117,0.287Z" style="fill:#75112e;fill-rule:nonzero;"/><path d="M352.287,107.915c1.546,0 2.869,-0.567 3.968,-1.702c1.098,-1.136 1.647,-2.504 1.647,-4.102c0,-1.584 -0.549,-2.947 -1.647,-4.09c-1.099,-1.144 -2.422,-1.715 -3.968,-1.715l-5.592,0l0,11.609l5.592,0Zm-13.087,7.725l0,-13.529l0,-13.529l13.087,0c3.604,0 6.69,1.326 9.258,3.981c2.568,2.655 3.851,5.838 3.851,9.548c0,2.878 -0.792,5.464 -2.378,7.759c-1.585,2.295 -3.608,3.922 -6.067,4.882l8.445,12.497l-9.141,0l-9.56,-14.153l0,14.153l-7.495,0l0,-11.609Z" style="fill:#75112e;fill-rule:nonzero;"/><path d="M384.21,116.107c2.197,-2.263 3.295,-4.993 3.295,-8.191c0,-3.183 -1.098,-5.913 -3.295,-8.192c-2.196,-2.279 -4.834,-3.419 -7.912,-3.419l0,23.196c3.078,0 5.716,-1.131 7.912,-3.394m5.292,-21.841c3.665,3.79 5.498,8.34 5.498,13.65c0,5.325 -1.833,9.878 -5.498,13.66c-3.668,3.783 -8.069,5.673 -13.204,5.673l-7.494,0l0,-38.668l7.494,0c5.135,0 9.536,1.895 13.204,5.685" style="fill:#75112e;fill-rule:nonzero;"/><path d="M158.14,144.552l-2.504,0l0,-4.666l-4.59,0l0,4.666l-2.497,0l0,-11.456l2.497,0l0,4.569l4.59,0l0,-4.569l2.504,0l0,11.456Z" style="fill:#1a1a1a;fill-rule:nonzero;"/><path d="M173.177,144.552l-6.646,0l0,-11.456l6.391,0l0,2.101l-3.894,0l0,2.548l3.623,0l0,2.094l-3.623,0l0,2.619l4.149,0l0,2.094Z" style="fill:#1a1a1a;fill-rule:nonzero;"/><path d="M186.553,140.022l-1.19,-3.851c-0.088,-0.287 -0.15,-0.632 -0.186,-1.03l-0.061,0c-0.026,0.335 -0.091,0.668 -0.194,0.999l-1.205,3.882l2.836,0Zm4.08,4.53l-2.72,0l-0.788,-2.549l-3.941,0l-0.781,2.549l-2.705,0l4.035,-11.457l2.96,0l3.94,11.457Z" style="fill:#1a1a1a;fill-rule:nonzero;"/><path d="M204.473,144.552l-6.6,0l0,-11.456l2.496,0l0,9.362l4.104,0l0,2.094Z" style="fill:#1a1a1a;fill-rule:nonzero;"/><path d="M218.73,135.197l-3.162,0l0,9.355l-2.503,0l0,-9.355l-3.145,0l0,-2.102l8.81,0l0,2.102Z" style="fill:#1a1a1a;fill-rule:nonzero;"/><path d="M235.668,144.552l-2.504,0l0,-4.666l-4.59,0l0,4.666l-2.497,0l0,-11.456l2.497,0l0,4.569l4.59,0l0,-4.569l2.504,0l0,11.456Z" style="fill:#1a1a1a;fill-rule:nonzero;"/><rect x="254.282" y="133.096" width="2.497" height="11.456" style="fill:#1a1a1a;"/><path d="M275.124,144.552l-2.52,0l-4.568,-7.198c-0.268,-0.421 -0.454,-0.738 -0.557,-0.951l-0.03,0c0.041,0.405 0.062,1.023 0.062,1.853l0,6.296l-2.358,0l0,-11.456l2.69,0l4.397,6.974c0.202,0.314 0.387,0.626 0.557,0.934l0.03,0c-0.04,-0.266 -0.061,-0.789 -0.061,-1.573l0,-6.335l2.358,0l0,11.456Z" style="fill:#1a1a1a;fill-rule:nonzero;"/><path d="M283.003,144.113l0,-2.557c0.448,0.388 0.935,0.68 1.461,0.875c0.525,0.194 1.056,0.292 1.592,0.292c0.314,0 0.588,-0.029 0.824,-0.089c0.233,-0.058 0.429,-0.14 0.586,-0.243c0.158,-0.104 0.274,-0.227 0.352,-0.367c0.077,-0.142 0.116,-0.295 0.116,-0.46c0,-0.223 -0.062,-0.423 -0.186,-0.599c-0.124,-0.176 -0.292,-0.338 -0.506,-0.488c-0.215,-0.149 -0.468,-0.292 -0.761,-0.431c-0.294,-0.138 -0.611,-0.28 -0.95,-0.423c-0.866,-0.373 -1.512,-0.829 -1.937,-1.367c-0.425,-0.537 -0.637,-1.188 -0.637,-1.949c0,-0.596 0.115,-1.109 0.347,-1.538c0.232,-0.429 0.548,-0.781 0.947,-1.058c0.399,-0.277 0.862,-0.481 1.388,-0.612c0.525,-0.131 1.082,-0.196 1.668,-0.196c0.578,0 1.09,0.036 1.535,0.108c0.446,0.072 0.856,0.183 1.232,0.331l0,2.39c-0.184,-0.133 -0.387,-0.25 -0.607,-0.351c-0.218,-0.102 -0.443,-0.186 -0.675,-0.252c-0.232,-0.067 -0.463,-0.116 -0.692,-0.149c-0.229,-0.032 -0.447,-0.047 -0.653,-0.047c-0.284,0 -0.541,0.028 -0.773,0.083c-0.232,0.056 -0.428,0.135 -0.587,0.236c-0.16,0.101 -0.283,0.223 -0.372,0.364c-0.087,0.141 -0.131,0.3 -0.131,0.475c0,0.192 0.05,0.363 0.147,0.515c0.098,0.152 0.237,0.296 0.418,0.432c0.18,0.136 0.399,0.269 0.657,0.399c0.256,0.131 0.548,0.266 0.872,0.404c0.443,0.191 0.842,0.396 1.194,0.611c0.353,0.216 0.657,0.46 0.909,0.731c0.251,0.272 0.445,0.583 0.58,0.931c0.133,0.349 0.201,0.755 0.201,1.218c0,0.639 -0.118,1.176 -0.353,1.611c-0.234,0.434 -0.552,0.785 -0.954,1.054c-0.401,0.269 -0.87,0.462 -1.402,0.579c-0.534,0.117 -1.097,0.176 -1.689,0.176c-0.608,0 -1.186,-0.053 -1.735,-0.16c-0.549,-0.107 -1.024,-0.267 -1.426,-0.479" style="fill:#1a1a1a;fill-rule:nonzero;"/><path d="M307.276,139.59c0,3.442 -1.551,5.162 -4.653,5.162c-3.009,0 -4.512,-1.681 -4.512,-5.041l0,-6.616l2.503,0l0,6.647c0,1.854 0.701,2.781 2.103,2.781c1.375,0 2.062,-0.895 2.062,-2.685l0,-6.743l2.497,0l0,6.495Z" style="fill:#1a1a1a;fill-rule:nonzero;"/><path d="M318.04,135.028l0,3.189l1.081,0c0.536,0 0.967,-0.161 1.291,-0.48c0.33,-0.325 0.495,-0.726 0.495,-1.206c0,-1.002 -0.58,-1.503 -1.74,-1.503l-1.127,0Zm6.8,9.524l-2.867,0l-1.723,-2.948c-0.129,-0.224 -0.252,-0.424 -0.371,-0.6c-0.119,-0.174 -0.238,-0.325 -0.36,-0.451c-0.121,-0.125 -0.247,-0.221 -0.378,-0.287c-0.131,-0.066 -0.275,-0.1 -0.429,-0.1l-0.672,0l0,4.386l-2.497,0l0,-11.456l3.957,0c2.689,0 4.035,1.037 4.035,3.115c0,0.4 -0.06,0.769 -0.178,1.106c-0.119,0.338 -0.286,0.644 -0.503,0.915c-0.216,0.272 -0.478,0.507 -0.784,0.703c-0.306,0.197 -0.649,0.352 -1.025,0.464l0,0.032c0.165,0.053 0.325,0.14 0.481,0.26c0.153,0.119 0.303,0.259 0.447,0.419c0.144,0.16 0.283,0.331 0.414,0.515c0.131,0.184 0.251,0.364 0.359,0.539l2.094,3.388Z" style="fill:#1a1a1a;fill-rule:nonzero;"/><path d="M337.397,140.022l-1.19,-3.851c-0.088,-0.287 -0.15,-0.632 -0.186,-1.03l-0.061,0c-0.027,0.335 -0.091,0.668 -0.194,0.999l-1.206,3.882l2.837,0Zm4.081,4.53l-2.721,0l-0.788,-2.549l-3.942,0l-0.781,2.549l-2.704,0l4.034,-11.457l2.959,0l3.943,11.457Z" style="fill:#1a1a1a;fill-rule:nonzero;"/><path d="M358.687,144.552l-2.52,0l-4.567,-7.198c-0.268,-0.421 -0.454,-0.738 -0.557,-0.951l-0.03,0c0.041,0.405 0.061,1.023 0.061,1.853l0,6.296l-2.357,0l0,-11.456l2.69,0l4.396,6.974c0.202,0.314 0.387,0.626 0.558,0.934l0.03,0c-0.041,-0.266 -0.062,-0.789 -0.062,-1.573l0,-6.335l2.358,0l0,11.456Z" style="fill:#1a1a1a;fill-rule:nonzero;"/><path d="M375.022,144.144c-0.809,0.405 -1.865,0.608 -3.169,0.608c-1.699,0 -3.037,-0.516 -4.01,-1.55c-0.974,-1.033 -1.461,-2.41 -1.461,-4.13c0,-1.832 0.548,-3.32 1.643,-4.459c1.094,-1.14 2.515,-1.71 4.261,-1.71c1.082,0 1.994,0.142 2.736,0.424l0,2.485c-0.742,-0.458 -1.586,-0.688 -2.534,-0.688c-1.042,0 -1.881,0.338 -2.52,1.016c-0.639,0.675 -0.958,1.592 -0.958,2.748c0,1.107 0.3,1.99 0.904,2.648c0.602,0.658 1.414,0.987 2.435,0.987c0.973,0 1.864,-0.245 2.673,-0.736l0,2.357Z" style="fill:#1a1a1a;fill-rule:nonzero;"/><path d="M389.456,144.552l-6.646,0l0,-11.456l6.391,0l0,2.101l-3.895,0l0,2.548l3.625,0l0,2.094l-3.625,0l0,2.619l4.15,0l0,2.094Z" style="fill:#1a1a1a;fill-rule:nonzero;"/><path d="M129.471,142.702c-14.291,24.826 -32.51,45.655 -56.95,60.207c-0.606,0.36 -1.24,0.67 -1.904,1.026c-11.882,-6.79 -22.57,-15.157 -32.076,-25.096c-10.098,-10.557 -18.729,-22.304 -26.057,-35.078c-1.255,-2.189 -1.999,-4.39 -1.992,-7.011c0.065,-25.036 0.035,-50.071 0.048,-75.107c0.001,-1.144 0.142,-2.289 0.24,-3.778c22.184,-3.969 42.616,-11.884 59.88,-27.736c17.09,15.693 37.23,23.757 60.175,27.709l0,4.783c0,24.449 -0.001,48.9 0.012,73.349c0.001,2.356 -0.126,4.563 -1.376,6.732m4.546,-84.137c-0.001,-1.131 -0.174,-2.263 -0.276,-3.508c-23.658,-3.896 -45.3,-11.998 -62.996,-29.572c-17.753,17.411 -39.302,25.75 -63.253,29.548c-0.06,1.22 -0.139,2.076 -0.139,2.931c-0.008,26.775 0.016,53.549 -0.048,80.323c-0.006,2.33 0.714,4.221 1.812,6.148c8.447,14.836 18.546,28.31 30.613,40.201c9.267,9.133 19.597,16.713 30.902,23.213c2.731,-1.656 5.448,-3.203 8.069,-4.906c23.028,-14.971 40.532,-35.332 54.035,-59.529c0.923,-1.654 1.234,-3.88 1.239,-5.843c0.08,-26.335 0.057,-52.67 0.042,-79.006" style="fill:#1a1a1a;fill-rule:nonzero;"/><path d="M98.715,64.662c-9.161,20.98 -18.093,41.46 -27.433,62.879c-3.951,-7.292 -6.535,-14.294 -9.586,-21.042c-3.119,-6.896 -6.153,-13.828 -9.195,-20.751c-3.026,-6.897 -6.017,-13.803 -9.195,-21.086l55.409,0Z" style="fill:#ceb887;fill-rule:nonzero;"/><path d="M25.278,85.75c0,16.219 -0.03,32.438 0.054,48.656c0.006,1.372 0.517,2.895 1.213,4.086c9.456,16.155 21.052,30.387 35.667,41.845c2.042,1.601 7.713,5.502 8.042,5.732c0,0 -29.986,-67.813 -44.273,-100.465c-0.234,0.049 -0.468,0.097 -0.703,0.146" style="fill:#ceb887;fill-rule:nonzero;"/><path d="M78.983,179.922c14.281,-11.202 25.489,-25.223 34.722,-40.989c0.964,-1.647 1.455,-3.844 1.47,-5.792c0.119,-14.773 0.072,-29.548 0.045,-44.322c-0.002,-0.869 -0.284,-1.737 -0.435,-2.606c-0.263,-0.029 -0.524,-0.057 -0.787,-0.086c-13.69,31.139 -41.13,93.957 -43.568,99.539l0,0.284c2.377,-1.611 6.368,-4.314 8.553,-6.028" style="fill:#ceb887;fill-rule:nonzero;"/><path d="M97.862,64.661l-27.432,0l0,62.883c9.344,-21.419 18.278,-41.899 27.432,-62.883" style="fill:#ceb887;fill-rule:nonzero;"/><path d="M51.654,85.746c3.042,6.927 6.072,13.86 9.189,20.75c3.055,6.754 5.641,13.755 9.587,21.048l0,-62.883l-27.977,0c3.178,7.285 6.173,14.193 9.201,21.085" style="fill:#ceb887;fill-rule:nonzero;"/><path d="M122.672,69.477c0,-1.455 0,-2.91 0,-4.932c-17.496,-7.774 -34.887,-11.302 -52.242,-11.174l0,11.29l27.432,0c-9.154,20.984 -18.088,41.464 -27.432,62.882l0,58.123c2.438,-5.582 29.879,-68.4 43.569,-99.539c0.261,0.028 0.524,0.057 0.786,0.085c0.151,0.869 0.433,1.738 0.435,2.607c0.027,14.774 0.074,29.549 -0.045,44.323c-0.015,1.947 -0.506,4.144 -1.47,5.791c-9.233,15.765 -20.442,29.787 -34.722,40.99c-2.185,1.713 -6.175,4.416 -8.553,6.027l0,9.107c0.34,-0.179 0.607,-0.317 0.858,-0.472c20.753,-12.863 36.43,-30.838 49.06,-51.917c1.624,-2.711 2.395,-5.417 2.379,-8.642c-0.106,-21.516 -0.055,-43.033 -0.055,-64.549" style="fill:#935967;fill-rule:nonzero;"/><path d="M70.254,186.07c-0.33,-0.232 -6,-4.132 -8.042,-5.733c-14.615,-11.458 -26.21,-25.69 -35.666,-41.846c-0.697,-1.19 -1.207,-2.713 -1.215,-4.085c-0.082,-16.214 -0.053,-32.43 -0.053,-48.645c0.387,-0.088 0.316,-0.071 0.702,-0.158c14.287,32.651 44.274,100.467 44.274,100.467c0,0 0.061,-0.141 0.176,-0.404l0,-58.122c-3.946,-7.292 -6.531,-14.294 -9.586,-21.048c-3.119,-6.89 -6.148,-13.823 -9.191,-20.75c-3.027,-6.892 -6.022,-13.8 -9.199,-21.084l27.976,0l0,-11.291c-17.562,0.129 -35.089,4.003 -52.65,11.025l0,68.583c0,4.125 1.084,8.185 3.201,11.681c12.504,20.652 28.214,38.178 48.976,50.648c0.176,-0.096 0.329,-0.176 0.473,-0.252l0,-9.106c-0.055,0.038 -0.122,0.083 -0.176,0.12" style="fill:#75112e;fill-rule:nonzero;"/><rect x="57.804" y="80.38" width="25.729" height="4.847" style="fill:#935967;"/><rect x="68.325" y="69.504" width="4.689" height="26.599" style="fill:#935967;"/></g></svg>