<?xml version="1.0" encoding="UTF-8" standalone="no"?><!DOCTYPE svg PUBLIC "-//W3C//DTD SVG 1.1//EN" "http://www.w3.org/Graphics/SVG/1.1/DTD/svg11.dtd"><svg width="100%" height="100%" viewBox="0 0 100 172" version="1.1" xmlns="http://www.w3.org/2000/svg" xmlns:xlink="http://www.w3.org/1999/xlink" xml:space="preserve" xmlns:serif="http://www.serif.com/" style="fill-rule:evenodd;clip-rule:evenodd;stroke-linejoin:round;stroke-miterlimit:1.41421;"><g id="Layer-1" serif:id="Layer 1"><path d="M10.741,137.746l-0.279,-0.645l-5.664,-13.034l2.8,0l3.135,7.205l3.136,-7.205l2.831,0l-5.959,13.679Z" style="fill:#75112e;fill-rule:nonzero;"/><path d="M20.802,132.96l-1.034,-2.393l-1.042,2.393l2.076,0Zm-3.308,2.834l-0.853,1.952l-0.452,0l-0.106,0l-1.708,0l-0.558,0l5.664,-13.042l0.279,-0.637l0.287,0.645l5.672,13.034l-0.558,0l-1.707,0l-0.115,0l-0.452,0l-0.845,-1.96l-0.041,-0.093l-4.465,0l-0.042,0.101Z" style="fill:#75112e;fill-rule:nonzero;"/><path d="M34.18,131.543l0,-7.476l2.651,0l0,13.679l-7.937,-7.484l0,7.484l-2.651,0l0,-13.679l7.937,7.476Z" style="fill:#75112e;fill-rule:nonzero;"/><path d="M47.455,124.606c0.801,0.359 1.506,0.847 2.113,1.464l-1.871,1.935c-0.788,-0.804 -1.724,-1.205 -2.807,-1.205c-1.095,0 -2.029,0.403 -2.804,1.209c-0.774,0.806 -1.161,1.772 -1.161,2.898c0,1.131 0.387,2.097 1.161,2.898c0.775,0.8 1.709,1.2 2.804,1.2c0.859,0 1.628,-0.256 2.306,-0.768c0.679,-0.512 1.158,-1.166 1.437,-1.964l-3.743,0l0,-2.732l6.484,0c0.088,0.43 0.131,0.885 0.131,1.366c0,1.883 -0.648,3.494 -1.945,4.832c-1.297,1.338 -2.854,2.007 -4.67,2.007c-1.823,0 -3.381,-0.669 -4.675,-2.007c-1.294,-1.338 -1.941,-2.949 -1.941,-4.832c0,-1.878 0.647,-3.488 1.941,-4.829c1.294,-1.34 2.852,-2.01 4.675,-2.01c0.908,0 1.763,0.179 2.565,0.538" style="fill:#75112e;fill-rule:nonzero;"/><path d="M63.668,124.067l0,8.206c0,1.51 -0.519,2.8 -1.555,3.87c-1.037,1.068 -2.283,1.603 -3.739,1.603c-1.461,0 -2.709,-0.535 -3.743,-1.603c-1.034,-1.07 -1.552,-2.36 -1.552,-3.87l0,-2.732l0,-5.474l2.652,0l0,8.206c0,0.752 0.258,1.396 0.775,1.93c0.517,0.535 1.14,0.802 1.868,0.802c0.722,0 1.343,-0.267 1.863,-0.802c0.52,-0.534 0.78,-1.178 0.78,-1.93l0,-0.28l0,-2.452l0,-5.474l2.651,0Z" style="fill:#75112e;fill-rule:nonzero;"/><path d="M70.898,132.96l-1.035,-2.393l-1.042,2.393l2.077,0Zm-3.309,2.834l-0.853,1.952l-0.452,0l-0.106,0l-1.708,0l-0.558,0l5.664,-13.042l0.279,-0.637l0.287,0.645l5.672,13.034l-0.558,0l-1.707,0l-0.115,0l-0.451,0l-0.846,-1.96l-0.041,-0.093l-4.465,0l-0.042,0.101Z" style="fill:#75112e;fill-rule:nonzero;"/><path d="M80.967,130.907c0.547,0 1.015,-0.201 1.404,-0.603c0.388,-0.401 0.582,-0.885 0.582,-1.451c0,-0.56 -0.194,-1.042 -0.582,-1.446c-0.389,-0.405 -0.857,-0.607 -1.404,-0.607l-1.978,0l0,4.107l1.978,0Zm-4.629,2.732l0,-4.786l0,-4.786l4.629,0c1.275,0 2.367,0.47 3.275,1.409c0.909,0.939 1.363,2.065 1.363,3.377c0,1.018 -0.281,1.933 -0.842,2.745c-0.561,0.812 -1.276,1.388 -2.146,1.727l2.988,4.421l-3.234,0l-3.382,-5.007l0,5.007l-2.651,0l0,-4.107Z" style="fill:#75112e;fill-rule:nonzero;"/><path d="M92.26,133.805c0.777,-0.801 1.166,-1.767 1.166,-2.898c0,-1.126 -0.389,-2.092 -1.166,-2.898c-0.777,-0.806 -1.71,-1.209 -2.799,-1.209l0,8.205c1.089,0 2.022,-0.4 2.799,-1.2m1.872,-7.727c1.296,1.341 1.945,2.951 1.945,4.829c0,1.884 -0.649,3.494 -1.945,4.832c-1.297,1.338 -2.854,2.007 -4.671,2.007l-2.651,0l0,-13.679l2.651,0c1.817,0 3.374,0.671 4.671,2.011" style="fill:#75112e;fill-rule:nonzero;"/><path d="M12.288,143.867l-0.886,0l0,-1.651l-1.624,0l0,1.651l-0.883,0l0,-4.053l0.883,0l0,1.617l1.624,0l0,-1.617l0.886,0l0,4.053Z" style="fill:#1a1a1a;fill-rule:nonzero;"/><path d="M17.607,143.867l-2.351,0l0,-4.053l2.261,0l0,0.744l-1.378,0l0,0.901l1.282,0l0,0.74l-1.282,0l0,0.927l1.468,0l0,0.741Z" style="fill:#1a1a1a;fill-rule:nonzero;"/><path d="M22.339,142.264l-0.421,-1.362c-0.031,-0.101 -0.053,-0.223 -0.066,-0.364l-0.021,0c-0.01,0.118 -0.032,0.236 -0.069,0.353l-0.426,1.373l1.003,0Zm1.443,1.603l-0.962,0l-0.279,-0.902l-1.394,0l-0.276,0.902l-0.957,0l1.427,-4.053l1.047,0l1.394,4.053Z" style="fill:#1a1a1a;fill-rule:nonzero;"/><path d="M28.678,143.867l-2.334,0l0,-4.053l0.882,0l0,3.312l1.452,0l0,0.741Z" style="fill:#1a1a1a;fill-rule:nonzero;"/><path d="M33.722,140.557l-1.119,0l0,3.31l-0.885,0l0,-3.31l-1.113,0l0,-0.743l3.117,0l0,0.743Z" style="fill:#1a1a1a;fill-rule:nonzero;"/><path d="M39.713,143.867l-0.885,0l0,-1.651l-1.624,0l0,1.651l-0.883,0l0,-4.053l0.883,0l0,1.617l1.624,0l0,-1.617l0.885,0l0,4.053Z" style="fill:#1a1a1a;fill-rule:nonzero;"/><rect x="46.298" y="139.814" width="0.883" height="4.053" style="fill:#1a1a1a;"/><path d="M53.671,143.867l-0.892,0l-1.615,-2.546c-0.095,-0.149 -0.161,-0.261 -0.197,-0.337l-0.011,0c0.015,0.144 0.022,0.362 0.022,0.656l0,2.227l-0.834,0l0,-4.053l0.951,0l1.556,2.467c0.071,0.111 0.137,0.222 0.197,0.331l0.01,0c-0.014,-0.094 -0.021,-0.279 -0.021,-0.557l0,-2.241l0.834,0l0,4.053Z" style="fill:#1a1a1a;fill-rule:nonzero;"/><path d="M56.458,143.711l0,-0.904c0.159,0.137 0.331,0.241 0.517,0.31c0.186,0.068 0.373,0.103 0.563,0.103c0.111,0 0.208,-0.01 0.291,-0.032c0.083,-0.02 0.152,-0.049 0.208,-0.086c0.056,-0.036 0.097,-0.08 0.124,-0.13c0.028,-0.05 0.041,-0.104 0.041,-0.162c0,-0.079 -0.021,-0.15 -0.065,-0.212c-0.044,-0.062 -0.104,-0.12 -0.18,-0.173c-0.075,-0.052 -0.165,-0.103 -0.269,-0.152c-0.104,-0.049 -0.216,-0.099 -0.336,-0.15c-0.306,-0.132 -0.535,-0.293 -0.685,-0.483c-0.15,-0.19 -0.225,-0.42 -0.225,-0.69c0,-0.211 0.041,-0.392 0.123,-0.544c0.082,-0.151 0.193,-0.276 0.335,-0.374c0.141,-0.098 0.304,-0.17 0.49,-0.217c0.186,-0.046 0.383,-0.069 0.591,-0.069c0.204,0 0.385,0.013 0.543,0.038c0.157,0.026 0.303,0.065 0.435,0.118l0,0.845c-0.065,-0.047 -0.137,-0.089 -0.214,-0.124c-0.077,-0.037 -0.157,-0.066 -0.239,-0.09c-0.082,-0.023 -0.164,-0.04 -0.245,-0.052c-0.081,-0.011 -0.158,-0.017 -0.231,-0.017c-0.1,0 -0.191,0.01 -0.273,0.03c-0.082,0.019 -0.152,0.047 -0.208,0.083c-0.057,0.036 -0.1,0.079 -0.131,0.129c-0.031,0.05 -0.047,0.106 -0.047,0.168c0,0.068 0.018,0.128 0.052,0.182c0.035,0.054 0.084,0.105 0.148,0.153c0.064,0.048 0.141,0.095 0.232,0.141c0.091,0.046 0.194,0.094 0.309,0.143c0.157,0.068 0.298,0.14 0.422,0.216c0.125,0.077 0.232,0.163 0.322,0.259c0.089,0.096 0.157,0.206 0.205,0.329c0.047,0.123 0.071,0.267 0.071,0.431c0,0.226 -0.042,0.416 -0.125,0.57c-0.083,0.153 -0.195,0.277 -0.337,0.372c-0.142,0.096 -0.308,0.164 -0.496,0.205c-0.189,0.042 -0.388,0.063 -0.598,0.063c-0.215,0 -0.419,-0.019 -0.613,-0.057c-0.195,-0.038 -0.363,-0.094 -0.505,-0.17" style="fill:#1a1a1a;fill-rule:nonzero;"/><path d="M65.045,142.112c0,1.217 -0.549,1.826 -1.646,1.826c-1.065,0 -1.597,-0.595 -1.597,-1.784l0,-2.34l0.886,0l0,2.351c0,0.656 0.248,0.984 0.744,0.984c0.486,0 0.729,-0.317 0.729,-0.95l0,-2.385l0.884,0l0,2.298Z" style="fill:#1a1a1a;fill-rule:nonzero;"/><path d="M68.852,140.498l0,1.128l0.383,0c0.189,0 0.342,-0.057 0.457,-0.17c0.116,-0.115 0.175,-0.257 0.175,-0.427c0,-0.354 -0.206,-0.531 -0.616,-0.531l-0.399,0Zm2.406,3.369l-1.014,0l-0.61,-1.043c-0.046,-0.079 -0.089,-0.15 -0.131,-0.212c-0.042,-0.062 -0.084,-0.115 -0.127,-0.16c-0.043,-0.044 -0.088,-0.078 -0.134,-0.101c-0.046,-0.024 -0.097,-0.036 -0.152,-0.036l-0.238,0l0,1.552l-0.883,0l0,-4.053l1.4,0c0.951,0 1.427,0.367 1.427,1.102c0,0.142 -0.021,0.272 -0.063,0.392c-0.042,0.119 -0.101,0.227 -0.178,0.323c-0.076,0.096 -0.169,0.179 -0.277,0.249c-0.108,0.07 -0.23,0.124 -0.362,0.164l0,0.011c0.058,0.019 0.114,0.05 0.169,0.092c0.055,0.042 0.108,0.092 0.159,0.149c0.051,0.056 0.1,0.117 0.146,0.182c0.047,0.065 0.089,0.128 0.127,0.191l0.741,1.198Z" style="fill:#1a1a1a;fill-rule:nonzero;"/><path d="M75.7,142.264l-0.421,-1.362c-0.031,-0.101 -0.053,-0.223 -0.066,-0.364l-0.022,0c-0.009,0.118 -0.032,0.236 -0.068,0.353l-0.427,1.373l1.004,0Zm1.443,1.603l-0.962,0l-0.279,-0.902l-1.394,0l-0.277,0.902l-0.956,0l1.427,-4.053l1.047,0l1.394,4.053Z" style="fill:#1a1a1a;fill-rule:nonzero;"/><path d="M83.231,143.867l-0.891,0l-1.616,-2.546c-0.095,-0.149 -0.16,-0.261 -0.197,-0.337l-0.011,0c0.015,0.144 0.022,0.362 0.022,0.656l0,2.227l-0.834,0l0,-4.053l0.952,0l1.555,2.467c0.071,0.111 0.137,0.222 0.197,0.331l0.011,0c-0.015,-0.094 -0.022,-0.279 -0.022,-0.557l0,-2.241l0.834,0l0,4.053Z" style="fill:#1a1a1a;fill-rule:nonzero;"/><path d="M89.01,143.723c-0.286,0.143 -0.66,0.214 -1.121,0.214c-0.602,0 -1.075,-0.182 -1.419,-0.548c-0.345,-0.365 -0.517,-0.852 -0.517,-1.461c0,-0.648 0.194,-1.174 0.581,-1.577c0.388,-0.403 0.89,-0.605 1.508,-0.605c0.383,0 0.705,0.05 0.968,0.15l0,0.879c-0.263,-0.162 -0.562,-0.243 -0.897,-0.243c-0.368,0 -0.665,0.119 -0.891,0.359c-0.226,0.239 -0.339,0.563 -0.339,0.972c0,0.392 0.106,0.704 0.32,0.937c0.213,0.233 0.5,0.349 0.861,0.349c0.344,0 0.66,-0.087 0.946,-0.26l0,0.834Z" style="fill:#1a1a1a;fill-rule:nonzero;"/><path d="M94.116,143.867l-2.351,0l0,-4.053l2.261,0l0,0.744l-1.378,0l0,0.901l1.282,0l0,0.74l-1.282,0l0,0.927l1.468,0l0,0.741Z" style="fill:#1a1a1a;fill-rule:nonzero;"/><path d="M84.368,77.116c-8.213,14.267 -18.683,26.237 -32.729,34.6c-0.348,0.207 -0.712,0.385 -1.094,0.589c-6.828,-3.902 -12.971,-8.71 -18.434,-14.422c-5.803,-6.067 -10.763,-12.818 -14.974,-20.159c-0.721,-1.258 -1.149,-2.522 -1.145,-4.029c0.037,-14.388 0.02,-28.776 0.027,-43.163c0.001,-0.658 0.082,-1.316 0.139,-2.171c12.748,-2.281 24.49,-6.83 34.412,-15.94c9.821,9.018 21.395,13.653 34.582,15.924l0,2.749c0,14.051 0,28.102 0.007,42.153c0,1.354 -0.073,2.622 -0.791,3.869m2.613,-48.353c-0.001,-0.65 -0.1,-1.301 -0.159,-2.016c-13.596,-2.239 -26.034,-6.895 -36.203,-16.995c-10.203,10.006 -22.587,14.798 -36.351,16.981c-0.035,0.701 -0.08,1.193 -0.08,1.685c-0.004,15.387 0.009,30.774 -0.028,46.161c-0.003,1.339 0.411,2.425 1.042,3.533c4.854,8.526 10.658,16.269 17.592,23.103c5.326,5.248 11.263,9.604 17.76,13.34c1.569,-0.952 3.131,-1.841 4.637,-2.82c13.234,-8.603 23.293,-20.304 31.054,-34.21c0.53,-0.951 0.708,-2.23 0.712,-3.358c0.045,-15.134 0.032,-30.269 0.024,-45.404" style="fill:#1a1a1a;fill-rule:nonzero;"/><path d="M66.693,32.267c-5.265,12.057 -10.398,23.826 -15.765,36.136c-2.271,-4.191 -3.756,-8.215 -5.51,-12.093c-1.792,-3.963 -3.536,-7.947 -5.284,-11.926c-1.739,-3.963 -3.458,-7.932 -5.284,-12.117l31.843,0Z" style="fill:#ceb887;fill-rule:nonzero;"/><path d="M24.489,44.386c0,9.321 -0.017,18.642 0.031,27.962c0.004,0.788 0.298,1.664 0.698,2.348c5.434,9.284 12.098,17.463 20.497,24.048c1.173,0.92 4.432,3.162 4.621,3.294c0,0 -17.232,-38.971 -25.443,-57.736c-0.134,0.028 -0.269,0.056 -0.404,0.084" style="fill:#ceb887;fill-rule:nonzero;"/><path d="M55.353,98.506c8.207,-6.438 14.648,-14.496 19.954,-23.557c0.555,-0.946 0.837,-2.209 0.845,-3.328c0.069,-8.49 0.042,-16.981 0.026,-25.471c-0.001,-0.5 -0.163,-0.999 -0.25,-1.498c-0.151,-0.017 -0.301,-0.033 -0.452,-0.05c-7.868,17.896 -23.637,53.997 -25.038,57.205l0,0.163c1.366,-0.926 3.659,-2.479 4.915,-3.464" style="fill:#ceb887;fill-rule:nonzero;"/><path d="M66.203,32.266l-15.765,0l0,36.138c5.37,-12.309 10.504,-24.079 15.765,-36.138" style="fill:#ceb887;fill-rule:nonzero;"/><path d="M39.647,44.384c1.749,3.98 3.49,7.965 5.281,11.925c1.756,3.881 3.242,7.904 5.51,12.095l0,-36.138l-16.078,0c1.826,4.187 3.547,8.157 5.287,12.118" style="fill:#ceb887;fill-rule:nonzero;"/><path d="M80.461,35.034c0,-0.836 0,-1.672 0,-2.834c-10.055,-4.468 -20.049,-6.496 -30.023,-6.422l0,6.488l15.765,0c-5.261,12.059 -10.395,23.829 -15.765,36.138l0,33.402c1.401,-3.207 17.171,-39.308 25.038,-57.204c0.151,0.017 0.302,0.033 0.452,0.049c0.087,0.5 0.249,0.999 0.25,1.498c0.016,8.491 0.043,16.982 -0.026,25.472c-0.009,1.12 -0.29,2.382 -0.845,3.329c-5.306,9.06 -11.747,17.118 -19.954,23.556c-1.256,0.984 -3.549,2.538 -4.915,3.464l0,5.233c0.195,-0.102 0.349,-0.181 0.493,-0.271c11.927,-7.392 20.936,-17.722 28.194,-29.836c0.933,-1.558 1.376,-3.113 1.368,-4.966c-0.061,-12.365 -0.032,-24.731 -0.032,-37.096" style="fill:#935967;fill-rule:nonzero;"/><path d="M50.337,102.039c-0.19,-0.133 -3.449,-2.375 -4.622,-3.295c-8.399,-6.585 -15.063,-14.764 -20.497,-24.049c-0.401,-0.683 -0.694,-1.559 -0.698,-2.347c-0.048,-9.318 -0.03,-18.637 -0.03,-27.956c0.222,-0.05 0.181,-0.041 0.403,-0.091c8.21,18.765 25.444,57.738 25.444,57.738c0,0 0.035,-0.081 0.101,-0.232l0,-33.403c-2.268,-4.19 -3.754,-8.214 -5.51,-12.096c-1.791,-3.96 -3.533,-7.944 -5.281,-11.924c-1.74,-3.961 -3.461,-7.931 -5.287,-12.118l16.078,0l0,-6.488c-10.093,0.074 -20.165,2.3 -30.258,6.336l0,39.414c0,2.37 0.623,4.704 1.84,6.713c7.186,11.868 16.214,21.94 28.146,29.107c0.101,-0.055 0.189,-0.101 0.272,-0.145l0,-5.233c-0.032,0.022 -0.07,0.047 -0.101,0.069" style="fill:#75112e;fill-rule:nonzero;"/><rect x="43.182" y="41.3" width="14.786" height="2.786" style="fill:#935967;"/><rect x="49.228" y="35.049" width="2.694" height="15.286" style="fill:#935967;"/></g></svg>